<svg width="159" height="164" viewBox="0 0 159 164" fill="none" xmlns="http://www.w3.org/2000/svg">
<path d="M152.866 47.6632C152.375 47.1496 151.695 46.8575 150.984 46.8575H75.4914C74.7795 46.8575 74.0992 47.1496 73.6088 47.6632C73.1169 48.1768 72.8572 48.8705 72.8904 49.5824L74.7707 90.013C74.8371 91.4471 76.0748 92.5785 77.4922 92.492C78.9287 92.4256 80.0387 91.2054 79.9723 89.7689L78.2186 52.064H148.259L143.294 158.794H84.8308C83.3932 158.794 82.2275 159.958 82.2275 161.397C82.2275 162.836 83.3932 164 84.8308 164H145.778C147.168 164 148.313 162.907 148.378 161.519L153.585 49.5824C153.617 48.8705 153.358 48.1768 152.866 47.6632Z" fill="white"/>
<path d="M104.127 143.175H10.4129C8.97528 143.175 7.80958 144.339 7.80958 145.778C7.80958 155.825 15.984 164 26.0319 164H88.5079C98.5555 164 106.731 155.824 106.731 145.778C106.73 144.339 105.565 143.175 104.127 143.175ZM88.5079 158.794H26.0319C19.7458 158.794 14.4862 154.314 13.2778 148.381H101.262C100.053 154.314 94.7932 158.794 88.5079 158.794Z" fill="white"/>
<path d="M104.127 127.556H10.4128C4.67159 127.556 0 132.226 0 137.969C0 143.711 4.67121 148.381 10.4128 148.381H104.127C109.868 148.381 114.54 143.711 114.54 137.969C114.54 132.226 109.868 127.556 104.127 127.556ZM104.127 143.175H10.4128C7.54147 143.175 5.20659 140.839 5.20659 137.969C5.20659 135.099 7.54177 132.762 10.4128 132.762H104.127C106.999 132.762 109.333 135.099 109.333 137.969C109.333 140.839 106.998 143.175 104.127 143.175Z" fill="white"/>
<path d="M111.936 78.0956C100.059 78.0956 89.6933 86.1194 86.7289 97.6045C86.369 98.9978 87.2067 100.416 88.5986 100.777C89.9938 101.133 91.41 100.299 91.77 98.9059C94.1403 89.7179 102.433 83.3018 111.936 83.3018C123.419 83.3018 132.761 92.6438 132.761 104.127C132.761 115.61 123.419 124.952 111.936 124.952C109.548 124.952 107.209 124.553 104.986 123.765C103.632 123.29 102.142 123.994 101.663 125.349C101.183 126.704 101.892 128.191 103.247 128.672C106.03 129.658 108.953 130.159 111.936 130.159C126.291 130.159 137.967 118.48 137.967 104.127C137.967 89.7736 126.29 78.0956 111.936 78.0956Z" fill="white"/>
<path d="M62.4761 85.9049H52.0632C27.6613 85.9049 7.80958 105.757 7.80958 130.159C7.80958 131.598 8.97528 132.762 10.4129 132.762H104.127C105.565 132.762 106.731 131.598 106.731 130.159C106.73 105.757 86.8781 85.9049 62.4761 85.9049ZM13.1024 127.556C14.4469 107.234 31.407 91.1114 52.0632 91.1114H62.4761C83.1324 91.1114 100.093 107.234 101.437 127.556H13.1024Z" fill="white"/>
<path d="M36.4443 101.524H31.2381V106.73H36.4443V101.524Z" fill="white"/>
<path d="M33.8409 111.936H28.6347V117.142H33.8409V111.936Z" fill="white"/>
<path d="M65.079 98.9201H59.8727V104.127H65.079V98.9201Z" fill="white"/>
<path d="M80.6979 111.936H75.4917V117.142H80.6979V111.936Z" fill="white"/>
<path d="M57.2694 114.539H52.0631V119.746H57.2694V114.539Z" fill="white"/>
<path d="M156.19 36.4449H67.6823C66.2447 36.4449 65.079 37.6091 65.079 39.0482V49.461C65.079 50.8997 66.2447 52.0643 67.6823 52.0643H156.19C157.628 52.0643 158.794 50.9001 158.794 49.461V39.0482C158.794 37.6091 157.628 36.4449 156.19 36.4449ZM153.587 46.8573H70.2856V41.6511H153.587V46.8573Z" fill="white"/>
<path d="M88.4502 38.5015L80.6407 2.05732C80.3395 0.654045 78.9579 -0.245878 77.5493 0.0595623C76.1438 0.359663 75.2477 1.74501 75.5489 3.15095L83.3584 39.5952C83.62 40.8154 84.7003 41.6516 85.9018 41.6516C86.0822 41.6516 86.2667 41.6333 86.4498 41.5929C87.8557 41.2928 88.7518 39.9071 88.4502 38.5015Z" fill="white"/>
</svg>
