<svg width="20" height="20" viewBox="0 0 20 20" fill="none" xmlns="http://www.w3.org/2000/svg">
<path d="M16.6668 5.8335H3.33341C2.41294 5.8335 1.66675 6.5797 1.66675 7.50017V15.8335C1.66675 16.7539 2.41294 17.5001 3.33341 17.5001H16.6668C17.5873 17.5001 18.3335 16.7539 18.3335 15.8335V7.50017C18.3335 6.5797 17.5873 5.8335 16.6668 5.8335Z" stroke="#80869A" stroke-width="1.5" stroke-linecap="round" stroke-linejoin="round"/>
<path d="M13.3335 17.5V4.16667C13.3335 3.72464 13.1579 3.30072 12.8453 2.98816C12.5327 2.67559 12.1088 2.5 11.6668 2.5H8.33341C7.89139 2.5 7.46746 2.67559 7.1549 2.98816C6.84234 3.30072 6.66675 3.72464 6.66675 4.16667V17.5" stroke="#80869A" stroke-width="1.5" stroke-linecap="round" stroke-linejoin="round"/>
</svg>
