<svg width="18" height="18" viewBox="0 0 18 18" fill="none" xmlns="http://www.w3.org/2000/svg">
<g clip-path="url(#clip0_126_2897)">
<path d="M8.4395 5.33683L6.6958 7.08053C6.05339 7.72294 5.4073 8.36536 4.76856 9.01511C4.61805 9.16929 4.50425 9.37487 4.4602 9.57677C4.22893 10.6377 4.005 11.6986 3.78108 12.7595L3.65626 13.3468C3.59753 13.6332 3.67462 13.9195 3.86918 14.1141C4.01969 14.2646 4.22893 14.349 4.44919 14.349C4.51159 14.349 4.574 14.3417 4.63641 14.3306L5.28249 14.1948C6.31036 13.9782 7.34189 13.758 8.36976 13.5451C8.60837 13.4937 8.81027 13.3872 8.9828 13.2147C11.8682 10.3256 14.7535 7.44028 17.6389 4.55859C17.8518 4.34567 17.9693 4.09238 17.9986 3.78035C18.0023 3.72895 17.9986 3.67756 17.9876 3.62984C17.9693 3.55642 17.9546 3.47933 17.9362 3.40591C17.8959 3.21869 17.8518 3.00578 17.7637 2.8002C17.2241 1.56677 16.3284 0.685741 15.1023 0.190164C14.8563 0.091048 14.5957 0.0580095 14.3681 0.028642L14.3057 0.0213001C13.9753 -0.0190803 13.6743 0.091048 13.4136 0.355356C11.7617 2.01462 10.0988 3.67756 8.4395 5.33683ZM14.1845 0.905998C14.1919 0.905998 14.1955 0.905998 14.2029 0.905998L14.2653 0.91334C14.4562 0.935365 14.6324 0.957391 14.7719 1.01613C15.7704 1.41993 16.5046 2.13943 16.9488 3.15262C17.0001 3.27009 17.0332 3.42059 17.0662 3.57845C17.0772 3.63718 17.0919 3.69592 17.1029 3.75465C17.0883 3.82073 17.0626 3.86478 17.0112 3.9125C14.1221 6.79419 11.2368 9.68323 8.3514 12.5686C8.30368 12.6163 8.25963 12.6383 8.19355 12.653C7.16201 12.8696 6.13415 13.0862 5.10262 13.3028L4.55932 13.4166L4.6621 12.9357C4.88603 11.8785 5.10996 10.8175 5.33756 9.76032C5.3449 9.72728 5.37427 9.67588 5.4073 9.63918C6.04605 8.99309 6.68479 8.35067 7.32721 7.71193L9.07091 5.96823C10.7338 4.30529 12.3968 2.64235 14.056 0.975746C14.1258 0.917011 14.1588 0.905998 14.1845 0.905998Z" fill="white"/>
<path d="M1.428 4.01536H7.83747C8.08709 4.01536 8.28899 3.81346 8.28899 3.56383C8.28899 3.31421 8.08709 3.1123 7.83747 3.1123H1.428C0.638744 3.1123 0 3.75472 0 4.5403V16.559C0 17.3482 0.642415 17.987 1.428 17.987H13.443C14.2323 17.987 14.871 17.3446 14.871 16.559V10.4101C14.871 10.1605 14.6691 9.95862 14.4195 9.95862C14.1698 9.95862 13.9679 10.1605 13.9679 10.4101V16.559C13.9679 16.849 13.7293 17.0876 13.4393 17.0876H1.428C1.13799 17.0876 0.899381 16.849 0.899381 16.559V4.54397C0.899381 4.25397 1.13799 4.01536 1.428 4.01536Z" fill="white"/>
</g>
<defs>
<clipPath id="clip0_126_2897">
<rect width="18" height="18" fill="white"/>
</clipPath>
</defs>
</svg>
