<svg width="24" height="24" viewBox="0 0 24 24" fill="none" xmlns="http://www.w3.org/2000/svg">
<path d="M4.5867 16.8227C4.66148 16.882 4.7509 16.9113 4.83991 16.9113C4.95941 16.9113 5.07768 16.8589 5.15816 16.7581C5.29797 16.5825 5.26912 16.3268 5.09353 16.187C4.76797 15.9277 4.45257 15.6461 4.15668 15.3498L1.14982 12.3429L4.25057 9.24216C7.23142 6.26172 11.5677 5.24439 15.5655 6.58646C15.7781 6.65678 16.0085 6.54297 16.0805 6.3304C16.1516 6.11784 16.0374 5.88698 15.8244 5.81544C11.5316 4.37461 6.87619 5.46712 3.67586 8.66704L0 12.3429L3.58157 15.9245C3.899 16.2423 4.23757 16.5443 4.5867 16.8227Z" fill="#F54749"/>
<path d="M20.4184 8.66741C19.8705 8.11953 19.2698 7.62529 18.6325 7.19772C18.4464 7.07294 18.1932 7.12253 18.0684 7.30868C17.9432 7.49483 17.9932 7.74763 18.1793 7.87282C18.7727 8.27072 19.3328 8.73163 19.8433 9.24212L22.8502 12.249L19.7494 15.3497C16.7479 18.3513 12.225 19.3662 8.22598 17.9331C8.01463 17.8571 7.78174 17.9672 7.70614 18.1786C7.63054 18.3899 7.74028 18.6224 7.95163 18.6984C9.24493 19.1617 10.5894 19.3865 11.925 19.3865C15.0225 19.3865 18.072 18.1765 20.3241 15.9244L23.9996 12.249L20.4184 8.66741Z" fill="#F54749"/>
<path d="M12.4123 16.9788C11.5372 16.9788 10.6845 16.7358 9.94519 16.2757C9.75538 16.1578 9.50461 16.2155 9.38552 16.4062C9.26684 16.5968 9.32537 16.8472 9.51599 16.9658C10.3837 17.5064 11.3856 17.7917 12.4123 17.7917C15.4379 17.7917 17.8993 15.3303 17.8993 12.3048C17.8993 11.2135 17.5794 10.1592 16.9746 9.25563C16.8494 9.06907 16.5966 9.01908 16.4109 9.14386C16.2243 9.26904 16.1743 9.52144 16.2991 9.70759C16.8141 10.477 17.0864 11.3748 17.0864 12.3048C17.0864 14.8824 14.9895 16.9788 12.4123 16.9788Z" fill="#F54749"/>
<path d="M12.4123 7.63051C13.2516 7.63051 14.0742 7.85527 14.792 8.28082C14.9847 8.39503 15.2342 8.33162 15.3488 8.13816C15.4631 7.9451 15.3997 7.69595 15.2062 7.58133C14.3632 7.08181 13.3971 6.81763 12.4119 6.81763C9.38634 6.81763 6.92493 9.27904 6.92493 12.3046C6.92493 13.1516 7.1127 13.9641 7.48338 14.7193C7.5541 14.8631 7.69839 14.9469 7.84877 14.9469C7.90852 14.9469 7.96989 14.9335 8.0272 14.9054C8.22879 14.8062 8.31211 14.5628 8.21335 14.3616C7.89795 13.7186 7.73781 13.0268 7.73781 12.305C7.73822 9.72735 9.83505 7.63051 12.4123 7.63051Z" fill="#F54749"/>
<path d="M22.2003 2.26274C22.0413 2.10382 21.7845 2.10382 21.6256 2.26274L2.726 21.1623C2.56708 21.3212 2.56708 21.5781 2.726 21.737C2.80526 21.8163 2.90931 21.8561 3.01336 21.8561C3.1174 21.8561 3.22145 21.8163 3.30071 21.737L22.2003 2.83745C22.3592 2.67894 22.3592 2.42166 22.2003 2.26274Z" fill="#F54749"/>
</svg>
