<svg width="18" height="18" viewBox="0 0 18 18" fill="none" xmlns="http://www.w3.org/2000/svg">
<g clip-path="url(#clip0_0_26)">
<path d="M9.70499 9.00009L13.85 4.85509C13.9319 4.75944 13.9747 4.6364 13.9698 4.51057C13.965 4.38473 13.9128 4.26536 13.8238 4.17631C13.7347 4.08726 13.6154 4.0351 13.4895 4.03024C13.3637 4.02538 13.2406 4.06818 13.145 4.15009L8.99999 8.29509L4.85499 4.14509C4.76083 4.05094 4.63314 3.99805 4.49999 3.99805C4.36684 3.99805 4.23914 4.05094 4.14499 4.14509C4.05083 4.23924 3.99794 4.36694 3.99794 4.50009C3.99794 4.63324 4.05083 4.76094 4.14499 4.85509L8.29499 9.00009L4.14499 13.1451C4.09265 13.1899 4.05014 13.2451 4.02012 13.3071C3.99011 13.3691 3.97325 13.4367 3.97059 13.5056C3.96793 13.5744 3.97953 13.6431 4.00467 13.7073C4.0298 13.7714 4.06793 13.8297 4.11666 13.8784C4.16539 13.9271 4.22366 13.9653 4.28783 13.9904C4.35199 14.0155 4.42065 14.0272 4.48951 14.0245C4.55837 14.0218 4.62594 14.005 4.68797 13.975C4.75 13.9449 4.80516 13.9024 4.84999 13.8501L8.99999 9.70509L13.145 13.8501C13.2406 13.932 13.3637 13.9748 13.4895 13.9699C13.6154 13.9651 13.7347 13.9129 13.8238 13.8239C13.9128 13.7348 13.965 13.6155 13.9698 13.4896C13.9747 13.3638 13.9319 13.2407 13.85 13.1451L9.70499 9.00009Z" fill="#F54749"/>
</g>
<defs>
<clipPath id="clip0_0_26">
<rect width="18" height="18" fill="white"/>
</clipPath>
</defs>
</svg>
